<?xml version="1.0" standalone="no"?>
<!DOCTYPE svg PUBLIC "-//W3C//DTD SVG 20010904//EN"
 "http://www.w3.org/TR/2001/REC-SVG-20010904/DTD/svg10.dtd">
<svg version="1.0" xmlns="http://www.w3.org/2000/svg"
 width="600.000000pt" height="600.000000pt" viewBox="0 0 600.000000 600.000000"
 preserveAspectRatio="xMidYMid meet">
<metadata>
Created by potrace 1.14, written by Peter Selinger 2001-2017
</metadata>
<g transform="translate(0.000000,600.000000) scale(0.100000,-0.100000)"
fill="#000000" stroke="none">
<path d="M1826 5984 c-393 -77 -689 -350 -792 -729 -24 -88 -27 -118 -28 -255
0 -133 3 -167 24 -240 37 -136 98 -264 174 -365 82 -109 244 -240 369 -298
102 -48 250 -90 319 -90 40 -1 25 -12 -19 -15 -40 -3 -130 -24 -198 -47 -184
-61 -385 -214 -495 -375 -176 -258 -224 -583 -130 -877 81 -255 280 -482 524
-597 77 -36 194 -73 259 -81 32 -4 57 -10 57 -14 0 -4 -32 -12 -70 -19 -287
-49 -556 -243 -697 -502 -138 -254 -159 -576 -55 -840 126 -319 400 -551 737
-622 28 -5 104 -12 171 -14 287 -8 533 93 740 302 155 156 264 391 279 598 2
34 5 495 5 1026 l1 965 20 -93 c42 -201 132 -366 274 -507 82 -81 100 -95 189
-149 304 -185 681 -193 996 -22 195 105 368 300 448 506 84 213 92 479 20 685
-50 146 -125 269 -226 372 -120 123 -207 182 -366 247 -52 22 -188 56 -220 56
-32 0 -35 20 -3 21 82 3 259 61 356 117 245 140 423 380 486 652 23 97 27 312
9 400 -7 35 -23 93 -34 128 -25 76 -100 232 -112 232 -4 0 -8 5 -8 11 0 17
-102 139 -157 188 -139 124 -293 201 -483 242 -79 17 -159 18 -1190 17 -889 0
-1118 -3 -1174 -14z m1979 -2004 c-404 -81 -721 -406 -790 -810 -12 -67 -13
-25 -14 378 l-1 452 448 -1 447 -1 -90 -18z m-1875 -1984 c-7 -7 -13 -7 -20 0
-6 6 -3 10 10 10 13 0 16 -4 10 -10z"/>
</g>
</svg>
